<svg width="24" height="24" xmlns="http://www.w3.org/2000/svg"
>
    <symbol fill="none" viewBox="0 0 24 24" id="home">
        <path
            d="M5.7002 9.9L12.0002 5L18.3002 9.9V17.6C18.3002 17.9713 18.1527 18.3274 17.8901 18.5899C17.6276 18.8525 17.2715 19 16.9002 19H7.1002C6.72889 19 6.3728 18.8525 6.11025 18.5899C5.84769 18.3274 5.7002 17.9713 5.7002 17.6V9.9Z"
            stroke="#474747" stroke-width="1.5" stroke-linecap="round" stroke-linejoin="round" />
        <path d="M9.8999 19V12H14.0999V19" stroke="#474747" stroke-width="1.5"
            stroke-linecap="round"
            stroke-linejoin="round" />
    </symbol>

    <symbol viewBox="0 0 24 24" fill="none"
        id="arrow-right">
        <path d="M9 18L15 12L9 6" stroke="#474747" stroke-width="2" stroke-linecap="round"
            stroke-linejoin="round" />
    </symbol>
    <symbol viewBox="0 0 24 24" fill="none" id="arrow">
        <path d="M12 5L19 12L12 19" stroke="white" stroke-width="2.5" stroke-linecap="round"
            stroke-linejoin="round" />
    </symbol>

    <symbol id="attach_money">
        <mask id="mask0_72_506" style="mask-type:alpha" maskUnits="userSpaceOnUse" x="0" y="0"
            width="22" height="22">
            <rect id="Bounding box" x="0.714355" y="0.714355" width="20.5714" height="20.5714"
                fill="#D9D9D9" />
        </mask>
        <g mask="url(#mask0_72_506)">
            <path id="attach_money_2"
                d="M10.1648 18.7142V16.8714C9.40769 16.6999 8.75412 16.3714 8.20412 15.8856C7.65412 15.3999 7.25055 14.7142 6.99341 13.8285L8.57912 13.1856C8.79341 13.8714 9.11127 14.3928 9.53269 14.7499C9.95412 15.1071 10.5077 15.2856 11.1934 15.2856C11.7791 15.2856 12.2756 15.1535 12.6827 14.8892C13.0898 14.6249 13.2934 14.2142 13.2934 13.6571C13.2934 13.1571 13.1363 12.7606 12.822 12.4678C12.5077 12.1749 11.7791 11.8428 10.6363 11.4714C9.40769 11.0856 8.56484 10.6249 8.10769 10.0892C7.65055 9.5535 7.42198 8.89993 7.42198 8.1285C7.42198 7.19993 7.72198 6.4785 8.32198 5.96422C8.92198 5.44993 9.53627 5.15707 10.1648 5.08564V3.28564H11.8791V5.08564C12.5934 5.19993 13.1827 5.46064 13.647 5.86779C14.1113 6.27493 14.4506 6.77136 14.6648 7.35707L13.0791 8.04279C12.9077 7.58565 12.6648 7.24279 12.3506 7.01422C12.0363 6.78564 11.6077 6.67136 11.0648 6.67136C10.4363 6.67136 9.95769 6.81064 9.62912 7.08922C9.30055 7.36779 9.13627 7.71422 9.13627 8.1285C9.13627 8.59993 9.35055 8.97136 9.77912 9.24279C10.2077 9.51422 10.9506 9.79993 12.0077 10.0999C12.9934 10.3856 13.7398 10.8392 14.247 11.4606C14.7541 12.0821 15.0077 12.7999 15.0077 13.6142C15.0077 14.6285 14.7077 15.3999 14.1077 15.9285C13.5077 16.4571 12.7648 16.7856 11.8791 16.9142V18.7142H10.1648Z"
                fill="#1C1B1F" />
        </g>
    </symbol>

    <symbol id="schedule">
        <mask id="mask0_72_512" style="mask-type:alpha" maskUnits="userSpaceOnUse" x="0" y="0"
            width="22" height="22">
            <rect id="Bounding box" x="0.714111" y="0.714355" width="20.5714" height="20.5714"
                fill="#D9D9D9" />
        </mask>
        <g mask="url(#mask0_72_512)">
            <path id="schedule_2"
                d="M13.8285 15.0287L15.0285 13.8287L11.857 10.6573V6.71443H10.1428V11.343L13.8285 15.0287ZM10.9999 19.5716C9.81418 19.5716 8.6999 19.3466 7.65704 18.8966C6.61418 18.4466 5.70704 17.8359 4.93561 17.0644C4.16418 16.293 3.55347 15.3859 3.10347 14.343C2.65347 13.3001 2.42847 12.1859 2.42847 11.0001C2.42847 9.81443 2.65347 8.70014 3.10347 7.65728C3.55347 6.61443 4.16418 5.70728 4.93561 4.93585C5.70704 4.16443 6.61418 3.55371 7.65704 3.10371C8.6999 2.65371 9.81418 2.42871 10.9999 2.42871C12.1856 2.42871 13.2999 2.65371 14.3428 3.10371C15.3856 3.55371 16.2928 4.16443 17.0642 4.93585C17.8356 5.70728 18.4463 6.61443 18.8963 7.65728C19.3463 8.70014 19.5713 9.81443 19.5713 11.0001C19.5713 12.1859 19.3463 13.3001 18.8963 14.343C18.4463 15.3859 17.8356 16.293 17.0642 17.0644C16.2928 17.8359 15.3856 18.4466 14.3428 18.8966C13.2999 19.3466 12.1856 19.5716 10.9999 19.5716ZM10.9999 17.8573C12.8999 17.8573 14.5178 17.1894 15.8535 15.8537C17.1892 14.518 17.857 12.9001 17.857 11.0001C17.857 9.10014 17.1892 7.48228 15.8535 6.14657C14.5178 4.81085 12.8999 4.143 10.9999 4.143C9.0999 4.143 7.48204 4.81085 6.14632 6.14657C4.81061 7.48228 4.14275 9.10014 4.14275 11.0001C4.14275 12.9001 4.81061 14.518 6.14632 15.8537C7.48204 17.1894 9.0999 17.8573 10.9999 17.8573Z"
                fill="#1C1B1F" />
        </g>
    </symbol>
    <path id="arrow_outward" d="M1.4 13L0 11.6L9.6 2H1V0H13V12H11V3.4L1.4 13Z" fill="#1C1B1F" />
    <symbol viewBox="0 0 24 24" fill="none"
        id="deliveryTruck"
        xmlns="http://www.w3.org/2000/svg">
        <mask id="mask0_273_2441" style="mask-type:alpha" maskUnits="userSpaceOnUse" x="0" y="0"
            width="24" height="24">
            <rect width="24" height="24" fill="#D9D9D9" />
        </mask>
        <g mask="url(#mask0_273_2441)">
            <path
                d="M6 20C5.16667 20 4.45833 19.7083 3.875 19.125C3.29167 18.5417 3 17.8333 3 17H1V6C1 5.45 1.19583 4.97917 1.5875 4.5875C1.97917 4.19583 2.45 4 3 4H17V8H20L23 12V17H21C21 17.8333 20.7083 18.5417 20.125 19.125C19.5417 19.7083 18.8333 20 18 20C17.1667 20 16.4583 19.7083 15.875 19.125C15.2917 18.5417 15 17.8333 15 17H9C9 17.8333 8.70833 18.5417 8.125 19.125C7.54167 19.7083 6.83333 20 6 20ZM6 18C6.28333 18 6.52083 17.9042 6.7125 17.7125C6.90417 17.5208 7 17.2833 7 17C7 16.7167 6.90417 16.4792 6.7125 16.2875C6.52083 16.0958 6.28333 16 6 16C5.71667 16 5.47917 16.0958 5.2875 16.2875C5.09583 16.4792 5 16.7167 5 17C5 17.2833 5.09583 17.5208 5.2875 17.7125C5.47917 17.9042 5.71667 18 6 18ZM3 15H3.8C4.08333 14.7 4.40833 14.4583 4.775 14.275C5.14167 14.0917 5.55 14 6 14C6.45 14 6.85833 14.0917 7.225 14.275C7.59167 14.4583 7.91667 14.7 8.2 15H15V6H3V15ZM18 18C18.2833 18 18.5208 17.9042 18.7125 17.7125C18.9042 17.5208 19 17.2833 19 17C19 16.7167 18.9042 16.4792 18.7125 16.2875C18.5208 16.0958 18.2833 16 18 16C17.7167 16 17.4792 16.0958 17.2875 16.2875C17.0958 16.4792 17 16.7167 17 17C17 17.2833 17.0958 17.5208 17.2875 17.7125C17.4792 17.9042 17.7167 18 18 18ZM17 13H21.25L19 10H17V13Z"
                fill="#1C1B1F" />
        </g>
    </symbol>
</svg>