<svg width="25" height="24" viewBox="0 0 25 24" fill="none" xmlns="http://www.w3.org/2000/svg">
<mask id="mask0_36_358" style="mask-type:alpha" maskUnits="userSpaceOnUse" x="0" y="0" width="25" height="24">
<rect x="0.658203" width="24" height="24" fill="#D9D9D9"/>
</mask>
<g mask="url(#mask0_36_358)">
<path d="M17.3082 13L11.6582 7.35001L17.3082 1.70001L22.9582 7.35001L17.3082 13ZM3.6582 11V3.00001H11.6582V11H3.6582ZM13.6582 21V13H21.6582V21H13.6582ZM3.6582 21V13H11.6582V21H3.6582ZM5.6582 9.00001H9.6582V5.00001H5.6582V9.00001ZM17.3332 10.2L20.1582 7.37501L17.3332 4.55001L14.5082 7.37501L17.3332 10.2ZM15.6582 19H19.6582V15H15.6582V19ZM5.6582 19H9.6582V15H5.6582V19Z" fill="#1C1B1F"/>
</g>
</svg>
