<svg width="34" height="29" viewBox="0 0 34 29" fill="none" xmlns="http://www.w3.org/2000/svg">
<g clip-path="url(#clip0_36_641)">
<g opacity="0.1">
</g>
<path d="M17.9098 15.7053C18.3707 15.7053 18.8212 15.5686 19.2043 15.3124C19.5875 15.0563 19.886 14.6922 20.0621 14.2664C20.2383 13.8404 20.2842 13.3719 20.1939 12.9199C20.1036 12.468 19.8814 12.053 19.5551 11.7274C19.2289 11.4018 18.8135 11.1804 18.3613 11.0911C17.9092 11.0017 17.4407 11.0485 17.0152 11.2256C16.5896 11.4026 16.2262 11.7018 15.9708 12.0855C15.7155 12.4691 15.5797 12.9199 15.5806 13.3808C15.5818 13.9977 15.8278 14.589 16.2645 15.0248C16.7011 15.4606 17.2929 15.7053 17.9098 15.7053Z" fill="#111111"/>
<path d="M25.1903 13.381C25.1903 13.8416 25.3269 14.2919 25.5828 14.675C25.8388 15.058 26.2026 15.3565 26.6281 15.5328C27.0538 15.7091 27.5221 15.7553 27.9739 15.6654C28.4257 15.5755 28.8408 15.3537 29.1665 15.028C29.4923 14.7022 29.7141 14.2872 29.804 13.8353C29.8939 13.3835 29.8477 12.9152 29.6714 12.4896C29.4951 12.064 29.1966 11.7002 28.8135 11.4443C28.4305 11.1883 27.9802 11.0518 27.5195 11.0518C26.9018 11.0518 26.3093 11.2971 25.8725 11.734C25.4357 12.1708 25.1903 12.7632 25.1903 13.381Z" fill="#111111"/>
<path d="M15.5811 6.23319C15.5811 6.69389 15.7176 7.14422 15.9736 7.52722C16.2296 7.91027 16.5933 8.20882 17.0189 8.38511C17.4445 8.56141 17.9129 8.60752 18.3647 8.51765C18.8165 8.42779 19.2315 8.20594 19.5573 7.88018C19.883 7.55447 20.1049 7.13941 20.1947 6.68762C20.2846 6.23578 20.2385 5.76744 20.0622 5.34186C19.8859 4.91624 19.5873 4.55248 19.2043 4.29655C18.8213 4.04062 18.371 3.90398 17.9103 3.90398C17.2925 3.90398 16.7001 4.14939 16.2633 4.58619C15.8265 5.02303 15.5811 5.61548 15.5811 6.23319Z" fill="#111111"/>
<path d="M10.5033 13.3808C10.5042 12.9199 10.3684 12.4691 10.113 12.0855C9.85764 11.7018 9.49421 11.4025 9.06868 11.2255C8.64315 11.0485 8.17467 11.0017 7.72255 11.0911C7.27043 11.1804 6.85494 11.4018 6.52871 11.7274C6.20253 12.053 5.98021 12.468 5.88997 12.9199C5.79968 13.3719 5.84555 13.8404 6.02171 14.2663C6.19786 14.6922 6.49637 15.0563 6.87951 15.3124C7.26265 15.5686 7.71317 15.7053 8.17406 15.7053C8.79097 15.7053 9.3827 15.4606 9.8194 15.0247C10.2561 14.5889 10.502 13.9977 10.5033 13.3808Z" fill="#111111"/>
<path d="M17.6417 18.247C17.181 18.247 16.7307 18.3836 16.3476 18.6396C15.9646 18.8955 15.6661 19.2592 15.4898 19.6849C15.3135 20.1105 15.2674 20.5788 15.3573 21.0306C15.4471 21.4825 15.669 21.8975 15.9947 22.2232C16.3204 22.5489 16.7354 22.7708 17.1873 22.8607C17.6391 22.9505 18.1075 22.9044 18.533 22.7281C18.9587 22.5518 19.3224 22.2533 19.5784 21.8703C19.8343 21.4872 19.9709 21.0369 19.9709 20.5762C19.9709 19.9585 19.7255 19.366 19.2887 18.9292C18.8519 18.4924 18.2594 18.247 17.6417 18.247Z" fill="#111111"/>
<path d="M21.0834 8.08136C20.2451 8.91459 19.111 9.38228 17.929 9.38228C16.747 9.38228 15.613 8.91459 14.7747 8.08136C14.4486 7.7565 14.0336 7.5356 13.582 7.44644C13.1304 7.35733 12.6626 7.404 12.2375 7.58058C11.8124 7.75711 11.4492 8.05566 11.1937 8.43852C10.9381 8.82133 10.8018 9.27128 10.8018 9.73161C10.8018 10.1919 10.9381 10.6418 11.1937 11.0247C11.4492 11.4075 11.8124 11.7061 12.2375 11.8826C12.6626 12.0592 13.1304 12.1058 13.582 12.0167C14.0336 11.9276 14.4486 11.7067 14.7747 11.3819C15.1894 10.9633 15.683 10.631 16.2268 10.4043C16.7706 10.1776 17.354 10.0609 17.9432 10.0609C18.5324 10.0609 19.1158 10.1776 19.6596 10.4043C20.2034 10.631 20.6969 10.9633 21.1117 11.3819C21.4378 11.7067 21.8528 11.9276 22.3044 12.0167C22.756 12.1058 23.2238 12.0592 23.6489 11.8826C24.074 11.7061 24.4372 11.4075 24.6927 11.0247C24.9483 10.6418 25.0846 10.1919 25.0846 9.73161C25.0846 9.27128 24.9483 8.82133 24.6927 8.43852C24.4372 8.05566 24.074 7.75711 23.6489 7.58058C23.2238 7.404 22.756 7.35733 22.3044 7.44644C21.8528 7.5356 21.4378 7.7565 21.1117 8.08136L21.0834 8.08136Z" fill="#111111"/>
<path d="M22.441 14.7861C21.8295 14.7885 21.2428 15.0286 20.8049 15.4556C19.9666 16.2888 18.8326 16.7565 17.6506 16.7565C16.4686 16.7565 15.3346 16.2888 14.4963 15.4556C14.1702 15.1307 13.7551 14.9098 13.3036 14.8207C12.852 14.7315 12.3841 14.7782 11.9591 14.9548C11.534 15.1313 11.1708 15.4299 10.9152 15.8127C10.6597 16.1956 10.5233 16.6456 10.5233 17.1058C10.5233 17.5661 10.6597 18.0161 10.9152 18.3989C11.1708 18.7817 11.534 19.0803 11.9591 19.2569C12.3841 19.4334 12.852 19.4801 13.3036 19.391C13.7551 19.3018 14.1702 19.0809 14.4963 18.7561C14.9109 18.3382 15.4041 18.0066 15.9475 17.7803C16.4909 17.5539 17.0738 17.4374 17.6624 17.4374C18.2511 17.4374 18.8339 17.5539 19.3773 17.7803C19.9207 18.0066 20.4139 18.3382 20.8285 18.7561C21.1009 19.0242 21.435 19.2213 21.8015 19.3298C22.1679 19.4382 22.5555 19.4549 22.9299 19.3783C23.3044 19.3016 23.6542 19.134 23.9485 18.8902C24.2429 18.6464 24.4727 18.3339 24.6177 17.9803C24.7628 17.6266 24.8186 17.2428 24.7802 16.8625C24.7418 16.4823 24.6105 16.1173 24.3977 15.7998C24.1849 15.4823 23.8973 15.222 23.5602 15.0419C23.2231 14.8618 22.8468 14.7675 22.4646 14.7672L22.441 14.7861Z" fill="#111111"/>
</g>
<defs>
<clipPath id="clip0_36_641">
<rect width="28.29" height="33.005" fill="white" transform="translate(0.658203 28.29) rotate(-90)"/>
</clipPath>
</defs>
</svg>
