<svg width="21" height="21"
    xmlns="http://www.w3.org/2000/svg">
    
    <symbol viewBox="0 0 21 21" fill="none" id="norm">
        <mask id="mask0_985_4262" style="mask-type:alpha" maskUnits="userSpaceOnUse" x="0" y="0" width="21" height="21">
            <rect x="0.666504" y="0.518066" width="20" height="20" fill="#D9D9D9"/>
        </mask>
        <g mask="url(#mask0_985_4262)">
            <path d="M13.4165 10.0181C13.7637 10.0181 14.0589 9.89654 14.3019 9.65348C14.545 9.41043 14.6665 9.11529 14.6665 8.76807C14.6665 8.42084 14.545 8.12571 14.3019 7.88265C14.0589 7.63959 13.7637 7.51807 13.4165 7.51807C13.0693 7.51807 12.7741 7.63959 12.5311 7.88265C12.288 8.12571 12.1665 8.42084 12.1665 8.76807C12.1665 9.11529 12.288 9.41043 12.5311 9.65348C12.7741 9.89654 13.0693 10.0181 13.4165 10.0181ZM7.9165 10.0181C8.26373 10.0181 8.55887 9.89654 8.80192 9.65348C9.04498 9.41043 9.1665 9.11529 9.1665 8.76807C9.1665 8.42084 9.04498 8.12571 8.80192 7.88265C8.55887 7.63959 8.26373 7.51807 7.9165 7.51807C7.56928 7.51807 7.27414 7.63959 7.03109 7.88265C6.78803 8.12571 6.6665 8.42084 6.6665 8.76807C6.6665 9.11529 6.78803 9.41043 7.03109 9.65348C7.27414 9.89654 7.56928 10.0181 7.9165 10.0181ZM10.6644 15.0181C11.6241 15.0181 12.4964 14.7472 13.2811 14.2056C14.0658 13.6639 14.604 12.9347 14.8957 12.0181H13.2498C12.9732 12.4806 12.6055 12.8462 12.1465 13.1149C11.6876 13.3837 11.1943 13.5181 10.6665 13.5181C10.1387 13.5181 9.64538 13.3837 9.18646 13.1149C8.72755 12.8462 8.35978 12.4806 8.08317 12.0181H6.43734C6.729 12.9347 7.2665 13.6639 8.04982 14.2056C8.83314 14.7472 9.70466 15.0181 10.6644 15.0181ZM10.6723 18.5181C9.5712 18.5181 8.53456 18.3097 7.56234 17.8931C6.59012 17.4764 5.73942 16.9035 5.01025 16.1743C4.28109 15.4451 3.70817 14.5947 3.2915 13.6231C2.87484 12.6515 2.6665 11.6133 2.6665 10.5085C2.6665 9.40377 2.87484 8.36876 3.2915 7.40348C3.70817 6.43821 4.28109 5.59098 5.01025 4.86182C5.73942 4.13265 6.58982 3.55973 7.56146 3.14307C8.53312 2.7264 9.57131 2.51807 10.676 2.51807C11.7808 2.51807 12.8158 2.7264 13.7811 3.14307C14.7464 3.55973 15.5936 4.13265 16.3228 4.86182C17.0519 5.59098 17.6248 6.43976 18.0415 7.40815C18.4582 8.37655 18.6665 9.41127 18.6665 10.5123C18.6665 11.6134 18.4582 12.65 18.0415 13.6222C17.6248 14.5945 17.0519 15.4451 16.3228 16.1743C15.5936 16.9035 14.7448 17.4764 13.7764 17.8931C12.808 18.3097 11.7733 18.5181 10.6723 18.5181ZM10.6665 17.0181C12.4721 17.0181 14.0068 16.3861 15.2707 15.1222C16.5346 13.8583 17.1665 12.3236 17.1665 10.5181C17.1665 8.71251 16.5346 7.17779 15.2707 5.9139C14.0068 4.65001 12.4721 4.01807 10.6665 4.01807C8.86095 4.01807 7.32623 4.65001 6.06234 5.9139C4.79845 7.17779 4.1665 8.71251 4.1665 10.5181C4.1665 12.3236 4.79845 13.8583 6.06234 15.1222C7.32623 16.3861 8.86095 17.0181 10.6665 17.0181Z" fill="#1C1B1F"/>
        </g>
    </symbol>

</svg>