<svg width="21" height="21"
    xmlns="http://www.w3.org/2000/svg">

    <symbol viewBox="0 0 21 21" fill="none" id="norm">
        <mask id="mask0_985_4262" style="mask-type:alpha" maskUnits="userSpaceOnUse" x="0" y="0" width="21" height="21">
            <rect x="0.666504" y="0.518066" width="20" height="20" fill="#D9D9D9"/>
        </mask>
        <g mask="url(#mask0_985_4262)">
            <path d="M13.4165 10.0181C13.7637 10.0181 14.0589 9.89654 14.3019 9.65348C14.545 9.41043 14.6665 9.11529 14.6665 8.76807C14.6665 8.42084 14.545 8.12571 14.3019 7.88265C14.0589 7.63959 13.7637 7.51807 13.4165 7.51807C13.0693 7.51807 12.7741 7.63959 12.5311 7.88265C12.288 8.12571 12.1665 8.42084 12.1665 8.76807C12.1665 9.11529 12.288 9.41043 12.5311 9.65348C12.7741 9.89654 13.0693 10.0181 13.4165 10.0181ZM7.9165 10.0181C8.26373 10.0181 8.55887 9.89654 8.80192 9.65348C9.04498 9.41043 9.1665 9.11529 9.1665 8.76807C9.1665 8.42084 9.04498 8.12571 8.80192 7.88265C8.55887 7.63959 8.26373 7.51807 7.9165 7.51807C7.56928 7.51807 7.27414 7.63959 7.03109 7.88265C6.78803 8.12571 6.6665 8.42084 6.6665 8.76807C6.6665 9.11529 6.78803 9.41043 7.03109 9.65348C7.27414 9.89654 7.56928 10.0181 7.9165 10.0181ZM10.6644 15.0181C11.6241 15.0181 12.4964 14.7472 13.2811 14.2056C14.0658 13.6639 14.604 12.9347 14.8957 12.0181H13.2498C12.9732 12.4806 12.6055 12.8462 12.1465 13.1149C11.6876 13.3837 11.1943 13.5181 10.6665 13.5181C10.1387 13.5181 9.64538 13.3837 9.18646 13.1149C8.72755 12.8462 8.35978 12.4806 8.08317 12.0181H6.43734C6.729 12.9347 7.2665 13.6639 8.04982 14.2056C8.83314 14.7472 9.70466 15.0181 10.6644 15.0181ZM10.6723 18.5181C9.5712 18.5181 8.53456 18.3097 7.56234 17.8931C6.59012 17.4764 5.73942 16.9035 5.01025 16.1743C4.28109 15.4451 3.70817 14.5947 3.2915 13.6231C2.87484 12.6515 2.6665 11.6133 2.6665 10.5085C2.6665 9.40377 2.87484 8.36876 3.2915 7.40348C3.70817 6.43821 4.28109 5.59098 5.01025 4.86182C5.73942 4.13265 6.58982 3.55973 7.56146 3.14307C8.53312 2.7264 9.57131 2.51807 10.676 2.51807C11.7808 2.51807 12.8158 2.7264 13.7811 3.14307C14.7464 3.55973 15.5936 4.13265 16.3228 4.86182C17.0519 5.59098 17.6248 6.43976 18.0415 7.40815C18.4582 8.37655 18.6665 9.41127 18.6665 10.5123C18.6665 11.6134 18.4582 12.65 18.0415 13.6222C17.6248 14.5945 17.0519 15.4451 16.3228 16.1743C15.5936 16.9035 14.7448 17.4764 13.7764 17.8931C12.808 18.3097 11.7733 18.5181 10.6723 18.5181ZM10.6665 17.0181C12.4721 17.0181 14.0068 16.3861 15.2707 15.1222C16.5346 13.8583 17.1665 12.3236 17.1665 10.5181C17.1665 8.71251 16.5346 7.17779 15.2707 5.9139C14.0068 4.65001 12.4721 4.01807 10.6665 4.01807C8.86095 4.01807 7.32623 4.65001 6.06234 5.9139C4.79845 7.17779 4.1665 8.71251 4.1665 10.5181C4.1665 12.3236 4.79845 13.8583 6.06234 15.1222C7.32623 16.3861 8.86095 17.0181 10.6665 17.0181Z" fill="#1C1B1F"/>
        </g>
    </symbol>

    <symbol viewBox="0 0 21 21" fill="none" id="good"
        xmlns="http://www.w3.org/2000/svg">
        <mask id="mask0_985_3993" style="mask-type:alpha" maskUnits="userSpaceOnUse" x="0" y="0" width="21" height="21">
            <rect x="0.5" y="0.518066" width="20" height="20" fill="#D9D9D9"/>
        </mask>
        <g mask="url(#mask0_985_3993)">
            <path d="M10.5003 15.1015C11.4448 15.1015 12.3024 14.8341 13.0732 14.2994C13.8441 13.7647 14.4031 13.0598 14.7503 12.1848H6.25032C6.59755 13.0598 7.15657 13.7647 7.92741 14.2994C8.69824 14.8341 9.55588 15.1015 10.5003 15.1015ZM7.00032 9.68481L7.91699 8.80981L8.79199 9.68481L9.66699 8.80981L7.91699 7.01815L6.12532 8.80981L7.00032 9.68481ZM12.2087 9.68481L13.0837 8.80981L14.0003 9.68481L14.8753 8.80981L13.0837 7.01815L11.3337 8.80981L12.2087 9.68481ZM10.5003 18.8515C9.34755 18.8515 8.26421 18.6327 7.25032 18.1952C6.23644 17.7577 5.35449 17.164 4.60449 16.414C3.85449 15.664 3.26074 14.782 2.82324 13.7681C2.38574 12.7543 2.16699 11.6709 2.16699 10.5181C2.16699 9.36537 2.38574 8.28204 2.82324 7.26815C3.26074 6.25426 3.85449 5.37231 4.60449 4.62231C5.35449 3.87231 6.23644 3.27856 7.25032 2.84106C8.26421 2.40356 9.34755 2.18481 10.5003 2.18481C11.6531 2.18481 12.7364 2.40356 13.7503 2.84106C14.7642 3.27856 15.6462 3.87231 16.3962 4.62231C17.1462 5.37231 17.7399 6.25426 18.1774 7.26815C18.6149 8.28204 18.8337 9.36537 18.8337 10.5181C18.8337 11.6709 18.6149 12.7543 18.1774 13.7681C17.7399 14.782 17.1462 15.664 16.3962 16.414C15.6462 17.164 14.7642 17.7577 13.7503 18.1952C12.7364 18.6327 11.6531 18.8515 10.5003 18.8515ZM10.5003 17.1848C12.3614 17.1848 13.9378 16.539 15.2295 15.2473C16.5212 13.9556 17.167 12.3793 17.167 10.5181C17.167 8.65704 16.5212 7.08065 15.2295 5.78898C13.9378 4.49731 12.3614 3.85148 10.5003 3.85148C8.63921 3.85148 7.06283 4.49731 5.77116 5.78898C4.47949 7.08065 3.83366 8.65704 3.83366 10.5181C3.83366 12.3793 4.47949 13.9556 5.77116 15.2473C7.06283 16.539 8.63921 17.1848 10.5003 17.1848Z" fill="#7AD26C"/>
        </g>
    </symbol>

    <symbol viewBox="0 0 21 21" fill="none" id="bad"
        xmlns="http://www.w3.org/2000/svg">
        <mask id="mask0_985_4268" style="mask-type:alpha" maskUnits="userSpaceOnUse" x="0" y="0" width="21" height="21">
            <rect x="0.833252" y="0.518066" width="20" height="20" fill="#D9D9D9"/>
        </mask>
        <g mask="url(#mask0_985_4268)">
            <path d="M13.5833 9.76807C13.9305 9.76807 14.2256 9.64654 14.4687 9.40348C14.7117 9.16043 14.8333 8.86529 14.8333 8.51807C14.8333 8.17084 14.7117 7.87571 14.4687 7.63265C14.2256 7.38959 13.9305 7.26807 13.5833 7.26807C13.236 7.26807 12.9409 7.38959 12.6978 7.63265C12.4548 7.87571 12.3333 8.17084 12.3333 8.51807C12.3333 8.86529 12.4548 9.16043 12.6978 9.40348C12.9409 9.64654 13.236 9.76807 13.5833 9.76807ZM8.08325 9.76807C8.43047 9.76807 8.72561 9.64654 8.96867 9.40348C9.21172 9.16043 9.33325 8.86529 9.33325 8.51807C9.33325 8.17084 9.21172 7.87571 8.96867 7.63265C8.72561 7.38959 8.43047 7.26807 8.08325 7.26807C7.73603 7.26807 7.44089 7.38959 7.19784 7.63265C6.95478 7.87571 6.83325 8.17084 6.83325 8.51807C6.83325 8.86529 6.95478 9.16043 7.19784 9.40348C7.44089 9.64654 7.73603 9.76807 8.08325 9.76807ZM10.8333 12.1222C9.99992 12.1222 9.23256 12.3375 8.53117 12.7681C7.82978 13.1986 7.2777 13.782 6.87492 14.5181H14.7916C14.3888 13.782 13.8367 13.1986 13.1353 12.7681C12.4339 12.3375 11.6666 12.1222 10.8333 12.1222ZM10.839 18.5181C9.73795 18.5181 8.70131 18.3097 7.72909 17.8931C6.75686 17.4764 5.90617 16.9035 5.177 16.1743C4.44784 15.4451 3.87492 14.5947 3.45825 13.6231C3.04159 12.6515 2.83325 11.6133 2.83325 10.5085C2.83325 9.40377 3.04159 8.36876 3.45825 7.40348C3.87492 6.43821 4.44784 5.59098 5.177 4.86182C5.90617 4.13265 6.75657 3.55973 7.72821 3.14307C8.69986 2.7264 9.73806 2.51807 10.8428 2.51807C11.9475 2.51807 12.9826 2.7264 13.9478 3.14307C14.9131 3.55973 15.7603 4.13265 16.4895 4.86182C17.2187 5.59098 17.7916 6.43976 18.2083 7.40815C18.6249 8.37655 18.8333 9.41127 18.8333 10.5123C18.8333 11.6134 18.6249 12.65 18.2083 13.6222C17.7916 14.5945 17.2187 15.4451 16.4895 16.1743C15.7603 16.9035 14.9116 17.4764 13.9432 17.8931C12.9748 18.3097 11.94 18.5181 10.839 18.5181ZM10.8333 17.0181C12.6388 17.0181 14.1735 16.3861 15.4374 15.1222C16.7013 13.8583 17.3333 12.3236 17.3333 10.5181C17.3333 8.71251 16.7013 7.17779 15.4374 5.9139C14.1735 4.65001 12.6388 4.01807 10.8333 4.01807C9.0277 4.01807 7.49297 4.65001 6.22909 5.9139C4.9652 7.17779 4.33325 8.71251 4.33325 10.5181C4.33325 12.3236 4.9652 13.8583 6.22909 15.1222C7.49297 16.3861 9.0277 17.0181 10.8333 17.0181Z" fill="#D26C6C"/>
        </g>
    </symbol>




</svg>