<svg width="24" height="24"
    xmlns="http://www.w3.org/2000/svg">
    <symbol viewBox="0 0 24 24" id="home">
        <path d="M5.7002 9.9L12.0002 5L18.3002 9.9V17.6C18.3002 17.9713 18.1527 18.3274 17.8901 18.5899C17.6276 18.8525 17.2715 19 16.9002 19H7.1002C6.72889 19 6.3728 18.8525 6.11025 18.5899C5.84769 18.3274 5.7002 17.9713 5.7002 17.6V9.9Z" stroke="#474747" stroke-width="1.5" stroke-linecap="round" stroke-linejoin="round" />
        <path d="M9.8999 19V12H14.0999V19" stroke="#474747" stroke-width="1.5" stroke-linecap="round" stroke-linejoin="round" />
    </symbol>

    <symbol viewBox="0 0 24 24" fill="none" id="arrow-right">
        <path d="M9 18L15 12L9 6" stroke="#474747" stroke-width="2" stroke-linecap="round" stroke-linejoin="round" />
    </symbol>
    <symbol viewBox="0 0 24 24" fill="none" id="arrow">
        <path d="M12 5L19 12L12 19" stroke="white" stroke-width="2.5" stroke-linecap="round" stroke-linejoin="round" />
    </symbol>

    <symbol id="attach_money">
        <mask id="mask0_72_506" style="mask-type:alpha" maskUnits="userSpaceOnUse" x="0" y="0" width="22" height="22">
            <rect id="Bounding box" x="0.714355" y="0.714355" width="20.5714" height="20.5714" fill="#D9D9D9" />
        </mask>
        <g mask="url(#mask0_72_506)">
            <path id="attach_money_2" d="M10.1648 18.7142V16.8714C9.40769 16.6999 8.75412 16.3714 8.20412 15.8856C7.65412 15.3999 7.25055 14.7142 6.99341 13.8285L8.57912 13.1856C8.79341 13.8714 9.11127 14.3928 9.53269 14.7499C9.95412 15.1071 10.5077 15.2856 11.1934 15.2856C11.7791 15.2856 12.2756 15.1535 12.6827 14.8892C13.0898 14.6249 13.2934 14.2142 13.2934 13.6571C13.2934 13.1571 13.1363 12.7606 12.822 12.4678C12.5077 12.1749 11.7791 11.8428 10.6363 11.4714C9.40769 11.0856 8.56484 10.6249 8.10769 10.0892C7.65055 9.5535 7.42198 8.89993 7.42198 8.1285C7.42198 7.19993 7.72198 6.4785 8.32198 5.96422C8.92198 5.44993 9.53627 5.15707 10.1648 5.08564V3.28564H11.8791V5.08564C12.5934 5.19993 13.1827 5.46064 13.647 5.86779C14.1113 6.27493 14.4506 6.77136 14.6648 7.35707L13.0791 8.04279C12.9077 7.58565 12.6648 7.24279 12.3506 7.01422C12.0363 6.78564 11.6077 6.67136 11.0648 6.67136C10.4363 6.67136 9.95769 6.81064 9.62912 7.08922C9.30055 7.36779 9.13627 7.71422 9.13627 8.1285C9.13627 8.59993 9.35055 8.97136 9.77912 9.24279C10.2077 9.51422 10.9506 9.79993 12.0077 10.0999C12.9934 10.3856 13.7398 10.8392 14.247 11.4606C14.7541 12.0821 15.0077 12.7999 15.0077 13.6142C15.0077 14.6285 14.7077 15.3999 14.1077 15.9285C13.5077 16.4571 12.7648 16.7856 11.8791 16.9142V18.7142H10.1648Z" fill="#1C1B1F" />
        </g>
    </symbol>

    <symbol id="schedule">
        <mask id="mask0_72_512" style="mask-type:alpha" maskUnits="userSpaceOnUse" x="0" y="0" width="22" height="22">
            <rect id="Bounding box" x="0.714111" y="0.714355" width="20.5714" height="20.5714" fill="#D9D9D9" />
        </mask>
        <g mask="url(#mask0_72_512)">
            <path id="schedule_2" d="M13.8285 15.0287L15.0285 13.8287L11.857 10.6573V6.71443H10.1428V11.343L13.8285 15.0287ZM10.9999 19.5716C9.81418 19.5716 8.6999 19.3466 7.65704 18.8966C6.61418 18.4466 5.70704 17.8359 4.93561 17.0644C4.16418 16.293 3.55347 15.3859 3.10347 14.343C2.65347 13.3001 2.42847 12.1859 2.42847 11.0001C2.42847 9.81443 2.65347 8.70014 3.10347 7.65728C3.55347 6.61443 4.16418 5.70728 4.93561 4.93585C5.70704 4.16443 6.61418 3.55371 7.65704 3.10371C8.6999 2.65371 9.81418 2.42871 10.9999 2.42871C12.1856 2.42871 13.2999 2.65371 14.3428 3.10371C15.3856 3.55371 16.2928 4.16443 17.0642 4.93585C17.8356 5.70728 18.4463 6.61443 18.8963 7.65728C19.3463 8.70014 19.5713 9.81443 19.5713 11.0001C19.5713 12.1859 19.3463 13.3001 18.8963 14.343C18.4463 15.3859 17.8356 16.293 17.0642 17.0644C16.2928 17.8359 15.3856 18.4466 14.3428 18.8966C13.2999 19.3466 12.1856 19.5716 10.9999 19.5716ZM10.9999 17.8573C12.8999 17.8573 14.5178 17.1894 15.8535 15.8537C17.1892 14.518 17.857 12.9001 17.857 11.0001C17.857 9.10014 17.1892 7.48228 15.8535 6.14657C14.5178 4.81085 12.8999 4.143 10.9999 4.143C9.0999 4.143 7.48204 4.81085 6.14632 6.14657C4.81061 7.48228 4.14275 9.10014 4.14275 11.0001C4.14275 12.9001 4.81061 14.518 6.14632 15.8537C7.48204 17.1894 9.0999 17.8573 10.9999 17.8573Z" fill="#1C1B1F" />
        </g>
    </symbol>

    <path id="arrow_outward" d="M1.4 13L0 11.6L9.6 2H1V0H13V12H11V3.4L1.4 13Z" fill="#1C1B1F" />

    <symbol viewBox="0 0 24 24" fill="none" id="deliveryTruck"
        xmlns="http://www.w3.org/2000/svg">
        <mask id="mask0_273_2441" style="mask-type:alpha" maskUnits="userSpaceOnUse" x="0" y="0" width="24" height="24">
            <rect width="24" height="24" fill="#D9D9D9" />
        </mask>
        <g mask="url(#mask0_273_2441)">
            <path d="M6 20C5.16667 20 4.45833 19.7083 3.875 19.125C3.29167 18.5417 3 17.8333 3 17H1V6C1 5.45 1.19583 4.97917 1.5875 4.5875C1.97917 4.19583 2.45 4 3 4H17V8H20L23 12V17H21C21 17.8333 20.7083 18.5417 20.125 19.125C19.5417 19.7083 18.8333 20 18 20C17.1667 20 16.4583 19.7083 15.875 19.125C15.2917 18.5417 15 17.8333 15 17H9C9 17.8333 8.70833 18.5417 8.125 19.125C7.54167 19.7083 6.83333 20 6 20ZM6 18C6.28333 18 6.52083 17.9042 6.7125 17.7125C6.90417 17.5208 7 17.2833 7 17C7 16.7167 6.90417 16.4792 6.7125 16.2875C6.52083 16.0958 6.28333 16 6 16C5.71667 16 5.47917 16.0958 5.2875 16.2875C5.09583 16.4792 5 16.7167 5 17C5 17.2833 5.09583 17.5208 5.2875 17.7125C5.47917 17.9042 5.71667 18 6 18ZM3 15H3.8C4.08333 14.7 4.40833 14.4583 4.775 14.275C5.14167 14.0917 5.55 14 6 14C6.45 14 6.85833 14.0917 7.225 14.275C7.59167 14.4583 7.91667 14.7 8.2 15H15V6H3V15ZM18 18C18.2833 18 18.5208 17.9042 18.7125 17.7125C18.9042 17.5208 19 17.2833 19 17C19 16.7167 18.9042 16.4792 18.7125 16.2875C18.5208 16.0958 18.2833 16 18 16C17.7167 16 17.4792 16.0958 17.2875 16.2875C17.0958 16.4792 17 16.7167 17 17C17 17.2833 17.0958 17.5208 17.2875 17.7125C17.4792 17.9042 17.7167 18 18 18ZM17 13H21.25L19 10H17V13Z" fill="#1C1B1F" />
        </g>
    </symbol>

    <symbol viewBox="0 0 24 24" fill="none" id="plus"
        xmlns="http://www.w3.org/2000/svg">
        <mask id="mask0_419_9775" style="mask-type:alpha" maskUnits="userSpaceOnUse" x="0" y="0" width="24" height="24">
            <rect width="24" height="24" fill="#D9D9D9"/>
        </mask>
        <g mask="url(#mask0_419_9775)">
            <path d="M11 13H5V11H11V5H13V11H19V13H13V19H11V13Z" fill="white"/>
        </g>
    </symbol>

    <symbol viewBox="0 0 24 24" fill="none" id="antic"
        xmlns="http://www.w3.org/2000/svg">
        <mask id="mask0_121_201" style="mask-type:alpha" maskUnits="userSpaceOnUse" x="0" y="0" width="24" height="24">
            <rect width="24" height="24" fill="#D9D9D9"/>
        </mask>
        <g mask="url(#mask0_121_201)">
            <path d="M7 10.8V7H5V8C5 8.63333 5.18333 9.20417 5.55 9.7125C5.91667 10.2208 6.4 10.5833 7 10.8ZM17 10.8C17.6 10.5833 18.0833 10.2208 18.45 9.7125C18.8167 9.20417 19 8.63333 19 8V7H17V10.8ZM11 19V15.9C10.1833 15.7167 9.45417 15.3708 8.8125 14.8625C8.17083 14.3542 7.7 13.7167 7.4 12.95C6.15 12.8 5.10417 12.2542 4.2625 11.3125C3.42083 10.3708 3 9.26667 3 8V7C3 6.45 3.19583 5.97917 3.5875 5.5875C3.97917 5.19583 4.45 5 5 5H7C7 4.45 7.19583 3.97917 7.5875 3.5875C7.97917 3.19583 8.45 3 9 3H15C15.55 3 16.0208 3.19583 16.4125 3.5875C16.8042 3.97917 17 4.45 17 5H19C19.55 5 20.0208 5.19583 20.4125 5.5875C20.8042 5.97917 21 6.45 21 7V8C21 9.26667 20.5792 10.3708 19.7375 11.3125C18.8958 12.2542 17.85 12.8 16.6 12.95C16.3 13.7167 15.8292 14.3542 15.1875 14.8625C14.5458 15.3708 13.8167 15.7167 13 15.9V19H16C16.2833 19 16.5208 19.0958 16.7125 19.2875C16.9042 19.4792 17 19.7167 17 20C17 20.2833 16.9042 20.5208 16.7125 20.7125C16.5208 20.9042 16.2833 21 16 21H8C7.71667 21 7.47917 20.9042 7.2875 20.7125C7.09583 20.5208 7 20.2833 7 20C7 19.7167 7.09583 19.4792 7.2875 19.2875C7.47917 19.0958 7.71667 19 8 19H11Z" fill="#69696C"/>
        </g>
    </symbol>

    <symbol viewBox="0 0 24 24" fill="none" id="house"
        xmlns="http://www.w3.org/2000/svg">
        <mask id="mask0_121_183" style="mask-type:alpha" maskUnits="userSpaceOnUse" x="0" y="0" width="24" height="24">
            <rect width="24" height="24" fill="#D9D9D9"/>
        </mask>
        <g mask="url(#mask0_121_183)">
            <path d="M4 19V11.625L3 12.4C2.76667 12.5667 2.51667 12.6333 2.25 12.6C1.98333 12.5667 1.76667 12.4333 1.6 12.2C1.43333 11.9667 1.36667 11.7167 1.4 11.45C1.43333 11.1833 1.55833 10.9667 1.775 10.8L4 9.1V7C4 6.71667 4.09583 6.47917 4.2875 6.2875C4.47917 6.09583 4.71667 6 5 6C5.28333 6 5.52083 6.09583 5.7125 6.2875C5.90417 6.47917 6 6.71667 6 7V7.575L10.775 3.925C10.9583 3.79167 11.1542 3.69167 11.3625 3.625C11.5708 3.55833 11.7833 3.525 12 3.525C12.2167 3.525 12.4292 3.55833 12.6375 3.625C12.8458 3.69167 13.0417 3.79167 13.225 3.925L22.225 10.8C22.4417 10.9667 22.5667 11.1833 22.6 11.45C22.6333 11.7167 22.5667 11.9667 22.4 12.2C22.2333 12.4167 22.0167 12.5417 21.75 12.575C21.4833 12.6083 21.2417 12.5417 21.025 12.375L20 11.625V19C20 19.55 19.8042 20.0208 19.4125 20.4125C19.0208 20.8042 18.55 21 18 21H13.5C13.3667 21 13.25 20.95 13.15 20.85C13.05 20.75 13 20.6333 13 20.5V16C13 15.7167 12.9042 15.4792 12.7125 15.2875C12.5208 15.0958 12.2833 15 12 15C11.7167 15 11.4792 15.0958 11.2875 15.2875C11.0958 15.4792 11 15.7167 11 16V20.5C11 20.6333 10.95 20.75 10.85 20.85C10.75 20.95 10.6333 21 10.5 21H6C5.45 21 4.97917 20.8042 4.5875 20.4125C4.19583 20.0208 4 19.55 4 19ZM5.3 5C4.91667 5 4.62083 4.84167 4.4125 4.525C4.20417 4.20833 4.19167 3.88333 4.375 3.55C4.65833 3.06667 5.02917 2.6875 5.4875 2.4125C5.94583 2.1375 6.45 2 7 2C7.18333 2 7.35833 1.95417 7.525 1.8625C7.69167 1.77083 7.81667 1.64167 7.9 1.475C7.98333 1.325 8.09583 1.20833 8.2375 1.125C8.37917 1.04167 8.54167 1 8.725 1C9.10833 1 9.4 1.15833 9.6 1.475C9.8 1.79167 9.80833 2.11667 9.625 2.45C9.34167 2.93333 8.97083 3.3125 8.5125 3.5875C8.05417 3.8625 7.55 4 7 4C6.81667 4 6.64167 4.04167 6.475 4.125C6.30833 4.20833 6.18333 4.34167 6.1 4.525C6.01667 4.675 5.90833 4.79167 5.775 4.875C5.64167 4.95833 5.48333 5 5.3 5Z" fill="#69696C"/>
        </g>
    </symbol>

    <symbol viewBox="0 0 24 24" fill="none" id="electronic"
        xmlns="http://www.w3.org/2000/svg">
        <mask id="mask0_121_165" style="mask-type:alpha" maskUnits="userSpaceOnUse" x="0" y="0" width="24" height="24">
            <rect width="24" height="24" fill="#D9D9D9"/>
        </mask>
        <g mask="url(#mask0_121_165)">
            <path d="M11 14.5L5.07501 13.75C4.65835 13.7 4.38751 13.475 4.26251 13.075C4.13751 12.675 4.22501 12.3333 4.52501 12.05L14.75 2.25C14.8333 2.16667 14.9333 2.10417 15.05 2.0625C15.1667 2.02083 15.325 2 15.525 2C15.8583 2 16.1125 2.14167 16.2875 2.425C16.4625 2.70833 16.4667 3 16.3 3.3L13 9.5L18.925 10.25C19.3417 10.3 19.6125 10.525 19.7375 10.925C19.8625 11.325 19.775 11.6667 19.475 11.95L9.25001 21.75C9.16668 21.8333 9.06668 21.8958 8.95001 21.9375C8.83335 21.9792 8.67501 22 8.47501 22C8.14168 22 7.88751 21.8583 7.71251 21.575C7.53751 21.2917 7.53335 21 7.70001 20.7L11 14.5Z" fill="#69696C"/>
        </g>
    </symbol>

    <symbol viewBox="0 0 24 24" fill="none" id="sport"
        xmlns="http://www.w3.org/2000/svg">
        <mask id="mask0_72_239" style="mask-type:alpha" maskUnits="userSpaceOnUse" x="0" y="0" width="24" height="24">
            <rect width="24" height="24" fill="#D9D9D9"/>
        </mask>
        <g mask="url(#mask0_72_239)">
            <path d="M2.04999 10.975C2.13332 10.125 2.30832 9.32088 2.57499 8.56255C2.84165 7.80422 3.20832 7.09172 3.67499 6.42505C4.25832 7.02505 4.74582 7.72088 5.13749 8.51255C5.52915 9.30422 5.78332 10.125 5.89999 10.975H2.04999ZM18.1 10.975C18.2167 10.125 18.4667 9.30838 18.85 8.52505C19.2333 7.74172 19.725 7.05005 20.325 6.45005C20.7917 7.10005 21.1583 7.80838 21.425 8.57505C21.6917 9.34172 21.8667 10.1417 21.95 10.975H18.1ZM3.67499 17.55C3.20832 16.9 2.84165 16.1959 2.57499 15.4375C2.30832 14.6792 2.13332 13.875 2.04999 13.025H5.89999C5.78332 13.875 5.52915 14.6917 5.13749 15.475C4.74582 16.2584 4.25832 16.95 3.67499 17.55ZM20.325 17.55C19.725 16.95 19.2333 16.2584 18.85 15.475C18.4667 14.6917 18.2167 13.875 18.1 13.025H21.95C21.8667 13.8584 21.6917 14.6584 21.425 15.425C21.1583 16.1917 20.7917 16.9 20.325 17.55ZM7.92499 10.975C7.79165 9.77505 7.46665 8.66672 6.94999 7.65005C6.43332 6.63338 5.75832 5.71672 4.92499 4.90005C5.72499 4.10005 6.63749 3.45838 7.66249 2.97505C8.68749 2.49172 9.79165 2.18338 10.975 2.05005V10.975H7.92499ZM13.025 10.975V2.05005C14.2083 2.18338 15.3125 2.49172 16.3375 2.97505C17.3625 3.45838 18.275 4.10005 19.075 4.90005C18.225 5.70005 17.5458 6.61255 17.0375 7.63755C16.5292 8.66255 16.2083 9.77505 16.075 10.975H13.025ZM10.975 21.95C9.77499 21.8167 8.66665 21.5042 7.64999 21.0125C6.63332 20.5209 5.72499 19.875 4.92499 19.075C5.77499 18.275 6.45415 17.3667 6.96249 16.35C7.47082 15.3334 7.79165 14.225 7.92499 13.025H10.975V21.95ZM13.025 21.95V13.025H16.075C16.2083 14.225 16.5292 15.3375 17.0375 16.3625C17.5458 17.3875 18.225 18.3001 19.075 19.1C18.275 19.9 17.3625 20.5417 16.3375 21.025C15.3125 21.5084 14.2083 21.8167 13.025 21.95Z" fill="#69696C"/>
        </g>
    </symbol>

    <symbol viewBox="0 0 24 24" fill="none" id="moda"
        xmlns="http://www.w3.org/2000/svg">
        <mask id="mask0_121_171" style="mask-type:alpha" maskUnits="userSpaceOnUse" x="0" y="0" width="24" height="24">
            <rect width="24" height="24" fill="#D9D9D9"/>
        </mask>
        <g mask="url(#mask0_121_171)">
            <path d="M7 22V16H5.4C4.73333 16 4.16667 15.7667 3.7 15.3C3.23333 14.8333 3 14.2667 3 13.6C3 13.1167 3.13333 12.6708 3.4 12.2625C3.66667 11.8542 4.01667 11.55 4.45 11.35L11 8.45V7.8C10.4 7.58333 9.91667 7.22083 9.55 6.7125C9.18333 6.20417 9 5.63333 9 5C9 4.16667 9.29167 3.45833 9.875 2.875C10.4583 2.29167 11.1667 2 12 2C12.8333 2 13.5417 2.29167 14.125 2.875C14.7083 3.45833 15 4.16667 15 5H13C13 4.71667 12.9042 4.47917 12.7125 4.2875C12.5208 4.09583 12.2833 4 12 4C11.7167 4 11.4792 4.09583 11.2875 4.2875C11.0958 4.47917 11 4.71667 11 5C11 5.28333 11.0958 5.52083 11.2875 5.7125C11.4792 5.90417 11.7167 6 12 6C12.2833 6 12.5208 6.09583 12.7125 6.2875C12.9042 6.47917 13 6.71667 13 7V8.45L19.55 11.35C19.9833 11.55 20.3333 11.8542 20.6 12.2625C20.8667 12.6708 21 13.1167 21 13.6C21 14.2667 20.7667 14.8333 20.3 15.3C19.8333 15.7667 19.2667 16 18.6 16H17V22H7ZM5.4 14H7V13H17V14H18.6C18.7167 14 18.8125 13.9583 18.8875 13.875C18.9625 13.7917 19 13.6833 19 13.55C19 13.4667 18.9792 13.3958 18.9375 13.3375C18.8958 13.2792 18.8333 13.2333 18.75 13.2L12 10.2L5.25 13.2C5.16667 13.2333 5.10417 13.2792 5.0625 13.3375C5.02083 13.3958 5 13.4667 5 13.55C5 13.6833 5.0375 13.7917 5.1125 13.875C5.1875 13.9583 5.28333 14 5.4 14Z" fill="#69696C"/>
        </g>
    </symbol>

    <symbol viewBox="0 0 24 24" fill="none" id="auto"
        xmlns="http://www.w3.org/2000/svg">
        <mask id="mask0_121_189" style="mask-type:alpha" maskUnits="userSpaceOnUse" x="0" y="0" width="24" height="24">
            <rect width="24" height="24" fill="#D9D9D9"/>
        </mask>
        <g mask="url(#mask0_121_189)">
            <path d="M6 19V19.5C6 19.9167 5.85417 20.2708 5.5625 20.5625C5.27083 20.8542 4.91667 21 4.5 21C4.08333 21 3.72917 20.8542 3.4375 20.5625C3.14583 20.2708 3 19.9167 3 19.5V12.35C3 12.2333 3.00833 12.1167 3.025 12C3.04167 11.8833 3.06667 11.775 3.1 11.675L4.975 6.35C5.10833 5.95 5.35 5.625 5.7 5.375C6.05 5.125 6.44167 5 6.875 5H17.125C17.5583 5 17.95 5.125 18.3 5.375C18.65 5.625 18.8917 5.95 19.025 6.35L20.9 11.675C20.9333 11.775 20.9583 11.8833 20.975 12C20.9917 12.1167 21 12.2333 21 12.35V19.5C21 19.9167 20.8542 20.2708 20.5625 20.5625C20.2708 20.8542 19.9167 21 19.5 21C19.0833 21 18.7292 20.8542 18.4375 20.5625C18.1458 20.2708 18 19.9167 18 19.5V19H6ZM5.8 10H18.2L17.15 7H6.85L5.8 10ZM7.5 16C7.91667 16 8.27083 15.8542 8.5625 15.5625C8.85417 15.2708 9 14.9167 9 14.5C9 14.0833 8.85417 13.7292 8.5625 13.4375C8.27083 13.1458 7.91667 13 7.5 13C7.08333 13 6.72917 13.1458 6.4375 13.4375C6.14583 13.7292 6 14.0833 6 14.5C6 14.9167 6.14583 15.2708 6.4375 15.5625C6.72917 15.8542 7.08333 16 7.5 16ZM16.5 16C16.9167 16 17.2708 15.8542 17.5625 15.5625C17.8542 15.2708 18 14.9167 18 14.5C18 14.0833 17.8542 13.7292 17.5625 13.4375C17.2708 13.1458 16.9167 13 16.5 13C16.0833 13 15.7292 13.1458 15.4375 13.4375C15.1458 13.7292 15 14.0833 15 14.5C15 14.9167 15.1458 15.2708 15.4375 15.5625C15.7292 15.8542 16.0833 16 16.5 16Z" fill="#69696C"/>
        </g>
    </symbol>

    <symbol viewBox="0 0 24 24" fill="none" id="other"
        xmlns="http://www.w3.org/2000/svg">
        <mask id="mask0_121_195" style="mask-type:alpha" maskUnits="userSpaceOnUse" x="0" y="0" width="24" height="24">
            <rect width="24" height="24" fill="#D9D9D9"/>
        </mask>
        <g mask="url(#mask0_121_195)">
            <path d="M11 21V17C11 16.0667 10.8583 15.375 10.575 14.925C10.2917 14.475 9.91665 14.0334 9.44999 13.6L10.875 12.175C11.075 12.3584 11.2667 12.5542 11.45 12.7625C11.6333 12.9709 11.8167 13.1917 12 13.425C12.2333 13.1084 12.4708 12.8292 12.7125 12.5875C12.9542 12.3459 13.2 12.1084 13.45 11.875C14.0833 11.2917 14.6583 10.6167 15.175 9.85005C15.6917 9.08338 15.9667 7.74172 16 5.82505L15.125 6.70005C14.9417 6.88338 14.7125 6.97505 14.4375 6.97505C14.1625 6.97505 13.925 6.88338 13.725 6.70005C13.525 6.50005 13.425 6.26255 13.425 5.98755C13.425 5.71255 13.525 5.47505 13.725 5.27505L16.3 2.70005C16.4 2.60005 16.5083 2.52922 16.625 2.48755C16.7417 2.44588 16.8667 2.42505 17 2.42505C17.1333 2.42505 17.2583 2.44588 17.375 2.48755C17.4917 2.52922 17.6 2.60005 17.7 2.70005L20.3 5.30005C20.4833 5.48338 20.5792 5.71255 20.5875 5.98755C20.5958 6.26255 20.5 6.50005 20.3 6.70005C20.1167 6.88338 19.8833 6.97505 19.6 6.97505C19.3167 6.97505 19.0833 6.88338 18.9 6.70005L18 5.82505C17.9667 8.20838 17.6 9.90422 16.9 10.9125C16.2 11.9209 15.5 12.7417 14.8 13.375C14.2667 13.8584 13.8333 14.3292 13.5 14.7875C13.1667 15.2459 13 15.9834 13 17V21C13 21.2834 12.9042 21.5209 12.7125 21.7125C12.5208 21.9042 12.2833 22 12 22C11.7167 22 11.4792 21.9042 11.2875 21.7125C11.0958 21.5209 11 21.2834 11 21ZM6.19999 8.17505C6.13332 7.84172 6.08749 7.47505 6.06249 7.07505C6.03749 6.67505 6.01665 6.25838 5.99999 5.82505L5.09999 6.72505C4.91665 6.90838 4.68749 7.00005 4.41249 7.00005C4.13749 7.00005 3.89999 6.90005 3.69999 6.70005C3.51665 6.51672 3.42499 6.28338 3.42499 6.00005C3.42499 5.71672 3.51665 5.48338 3.69999 5.30005L6.29999 2.70005C6.39999 2.60005 6.50832 2.52922 6.62499 2.48755C6.74165 2.44588 6.86665 2.42505 6.99999 2.42505C7.13332 2.42505 7.25832 2.44588 7.37499 2.48755C7.49165 2.52922 7.59999 2.60005 7.69999 2.70005L10.3 5.30005C10.5 5.50005 10.5958 5.73338 10.5875 6.00005C10.5792 6.26672 10.475 6.50005 10.275 6.70005C10.075 6.88338 9.84165 6.97505 9.57499 6.97505C9.30832 6.97505 9.07499 6.88338 8.87499 6.70005L7.99999 5.85005C7.99999 6.20005 8.01665 6.52922 8.04999 6.83755C8.08332 7.14588 8.11665 7.43338 8.14999 7.70005L6.19999 8.17505ZM8.34999 12.575C8.01665 12.225 7.69582 11.8167 7.38749 11.35C7.07915 10.8834 6.80832 10.3084 6.57499 9.62505L8.49999 9.15005C8.66665 9.60005 8.85832 9.98338 9.07499 10.3C9.29165 10.6167 9.52499 10.9 9.77499 11.15L8.34999 12.575Z" fill="#69696C"/>
        </g>
    </symbol>

    <symbol viewBox="0 0 24 24" fill="none" id="kids"
        xmlns="http://www.w3.org/2000/svg">
        <mask id="mask0_121_177" style="mask-type:alpha" maskUnits="userSpaceOnUse" x="0" y="0" width="24" height="24">
            <rect width="24" height="24" fill="#D9D9D9"/>
        </mask>
        <g mask="url(#mask0_121_177)">
            <path d="M12 22C10.85 22 9.74583 21.8083 8.6875 21.425C7.62917 21.0417 6.65 20.5 5.75 19.8C5.51667 19.6167 5.39167 19.3792 5.375 19.0875C5.35833 18.7958 5.45 18.55 5.65 18.35C5.85 18.15 6.0875 18.05 6.3625 18.05C6.6375 18.05 6.89167 18.1417 7.125 18.325C7.25833 18.4417 7.4 18.55 7.55 18.65C7.7 18.75 7.85 18.8417 8 18.925V16H6C5.45 16 4.97917 15.8042 4.5875 15.4125C4.19583 15.0208 4 14.55 4 14V8C4 6.9 4.39167 5.95833 5.175 5.175C5.95833 4.39167 6.9 4 8 4H11C11.2833 4 11.5208 4.09583 11.7125 4.2875C11.9042 4.47917 12 4.71667 12 5V9H18C18.55 9 19.0208 9.19583 19.4125 9.5875C19.8042 9.97917 20 10.45 20 11V14C20 14.55 19.8042 15.0208 19.4125 15.4125C19.0208 15.8042 18.55 16 18 16H16V18.925C16.1667 18.825 16.325 18.725 16.475 18.625C16.625 18.525 16.775 18.4167 16.925 18.3C17.1417 18.1167 17.3917 18.0333 17.675 18.05C17.9583 18.0667 18.1917 18.1667 18.375 18.35C18.575 18.55 18.6667 18.7875 18.65 19.0625C18.6333 19.3375 18.5167 19.5667 18.3 19.75C17.4 20.4667 16.4125 21.0208 15.3375 21.4125C14.2625 21.8042 13.15 22 12 22ZM12 20C12.3333 20 12.6667 19.9792 13 19.9375C13.3333 19.8958 13.6667 19.8333 14 19.75V16H10V19.75C10.3333 19.8333 10.6667 19.8958 11 19.9375C11.3333 19.9792 11.6667 20 12 20Z" fill="#69696C"/>
        </g>
    </symbol>

    <symbol fill="none" id="unliked"
        xmlns="http://www.w3.org/2000/svg">
        <mask id="mask0_273_1286" style="mask-type:alpha" maskUnits="userSpaceOnUse" x="0" y="0" width="24" height="25">
            <rect y="0.5" width="24" height="24" fill="#D9D9D9"/>
        </mask>
        <g mask="url(#mask0_273_1286)">
            <path d="M12 21.5L10.55 20.2C8.86667 18.6834 7.475 17.375 6.375 16.275C5.275 15.175 4.4 14.1875 3.75 13.3125C3.1 12.4375 2.64583 11.6334 2.3875 10.9C2.12917 10.1667 2 9.41669 2 8.65002C2 7.08336 2.525 5.77502 3.575 4.72502C4.625 3.67502 5.93333 3.15002 7.5 3.15002C8.36667 3.15002 9.19167 3.33336 9.975 3.70002C10.7583 4.06669 11.4333 4.58336 12 5.25002C12.5667 4.58336 13.2417 4.06669 14.025 3.70002C14.8083 3.33336 15.6333 3.15002 16.5 3.15002C18.0667 3.15002 19.375 3.67502 20.425 4.72502C21.475 5.77502 22 7.08336 22 8.65002C22 9.41669 21.8708 10.1667 21.6125 10.9C21.3542 11.6334 20.9 12.4375 20.25 13.3125C19.6 14.1875 18.725 15.175 17.625 16.275C16.525 17.375 15.1333 18.6834 13.45 20.2L12 21.5ZM12 18.8C13.6 17.3667 14.9167 16.1375 15.95 15.1125C16.9833 14.0875 17.8 13.1959 18.4 12.4375C19 11.6792 19.4167 11.0042 19.65 10.4125C19.8833 9.82086 20 9.23336 20 8.65002C20 7.65002 19.6667 6.81669 19 6.15002C18.3333 5.48336 17.5 5.15002 16.5 5.15002C15.7167 5.15002 14.9917 5.37086 14.325 5.81252C13.6583 6.25419 13.2 6.81669 12.95 7.50002H11.05C10.8 6.81669 10.3417 6.25419 9.675 5.81252C9.00833 5.37086 8.28333 5.15002 7.5 5.15002C6.5 5.15002 5.66667 5.48336 5 6.15002C4.33333 6.81669 4 7.65002 4 8.65002C4 9.23336 4.11667 9.82086 4.35 10.4125C4.58333 11.0042 5 11.6792 5.6 12.4375C6.2 13.1959 7.01667 14.0875 8.05 15.1125C9.08333 16.1375 10.4 17.3667 12 18.8Z" fill="#1C1B1F"/>
        </g>
    </symbol>

    <symbol fill="none" id="liked"
        xmlns="http://www.w3.org/2000/svg">
        <mask id="mask0_273_1286" style="mask-type:alpha" maskUnits="userSpaceOnUse" x="0" y="0" width="24" height="25">
            <rect y="0.5" width="24" height="24" fill="#D9D9D9"/>
        </mask>
        <g mask="url(#mask0_273_1286)">
            <path d="M12 21.5L10.55 20.2C8.86667 18.6834 7.475 17.375 6.375 16.275C5.275 15.175 4.4 14.1875 3.75 13.3125C3.1 12.4375 2.64583 11.6334 2.3875 10.9C2.12917 10.1667 2 9.41669 2 8.65002C2 7.08336 2.525 5.77502 3.575 4.72502C4.625 3.67502 5.93333 3.15002 7.5 3.15002C8.36667 3.15002 9.19167 3.33336 9.975 3.70002C10.7583 4.06669 11.4333 4.58336 12 5.25002C12.5667 4.58336 13.2417 4.06669 14.025 3.70002C14.8083 3.33336 15.6333 3.15002 16.5 3.15002C18.0667 3.15002 19.375 3.67502 20.425 4.72502C21.475 5.77502 22 7.08336 22 8.65002C22 9.41669 21.8708 10.1667 21.6125 10.9C21.3542 11.6334 20.9 12.4375 20.25 13.3125C19.6 14.1875 18.725 15.175 17.625 16.275C16.525 17.375 15.1333 18.6834 13.45 20.2L12 21.5ZM12 18.8C13.6 17.3667 14.9167 16.1375 15.95 15.1125C16.9833 14.0875 17.8 13.1959 18.4 12.4375C19 11.6792 19.4167 11.0042 19.65 10.4125C19.8833 9.82086 20 9.23336 20 8.65002C20 7.65002 19.6667 6.81669 19 6.15002C18.3333 5.48336 17.5 5.15002 16.5 5.15002C15.7167 5.15002 14.9917 5.37086 14.325 5.81252C13.6583 6.25419 13.2 6.81669 12.95 7.50002H11.05C10.8 6.81669 10.3417 6.25419 9.675 5.81252C9.00833 5.37086 8.28333 5.15002 7.5 5.15002C6.5 5.15002 5.66667 5.48336 5 6.15002C4.33333 6.81669 4 7.65002 4 8.65002C4 9.23336 4.11667 9.82086 4.35 10.4125C4.58333 11.0042 5 11.6792 5.6 12.4375C6.2 13.1959 7.01667 14.0875 8.05 15.1125C9.08333 16.1375 10.4 17.3667 12 18.8Z" fill="#FF0000"/>
        </g>
    </symbol>

</svg>