<svg width="21" height="20" viewBox="0 0 21 20" fill="none" xmlns="http://www.w3.org/2000/svg">
<path d="M17.7629 15.0275C17.4907 15.6564 17.1685 16.2352 16.7952 16.7674C16.2863 17.493 15.8697 17.9952 15.5486 18.2741C15.0508 18.7318 14.5175 18.9663 13.9464 18.9796C13.5364 18.9796 13.042 18.8629 12.4665 18.6263C11.889 18.3907 11.3584 18.274 10.8732 18.274C10.3643 18.274 9.81854 18.3907 9.2348 18.6263C8.65015 18.8629 8.17916 18.9863 7.81906 18.9985C7.27139 19.0218 6.72552 18.7807 6.18067 18.274C5.83291 17.9707 5.39792 17.4507 4.8768 16.7141C4.31771 15.9275 3.85807 15.0153 3.49793 13.9753C3.1123 12.8519 2.91895 11.7642 2.91895 10.7111C2.91895 9.50482 3.17959 8.46445 3.7017 7.59257C4.11204 6.89226 4.65791 6.33985 5.34107 5.93429C6.02423 5.52872 6.76247 5.32207 7.55743 5.30886C7.99241 5.30886 8.56286 5.4434 9.27172 5.70784C9.9786 5.97317 10.4325 6.10775 10.6315 6.10775C10.7802 6.10775 11.2844 5.95042 12.1392 5.63676C12.9475 5.34588 13.6297 5.22543 14.1886 5.27289C15.703 5.39513 16.8407 5.99208 17.5974 7.06762C16.243 7.88827 15.573 9.03767 15.5863 10.5122C15.5985 11.6607 16.0152 12.6165 16.834 13.3753C17.2051 13.7275 17.6196 13.9998 18.0806 14.1931C17.9807 14.483 17.8751 14.7608 17.7629 15.0275H17.7629ZM14.2897 1.36011C14.2897 2.26032 13.9608 3.10083 13.3053 3.87881C12.5142 4.80366 11.5574 5.33807 10.5197 5.25377C10.5058 5.14059 10.4989 5.02667 10.4988 4.91264C10.4988 4.04843 10.8751 3.12358 11.5431 2.3674C11.8767 1.98455 12.3009 1.66618 12.8153 1.41221C13.3286 1.16204 13.8142 1.02366 14.2708 1C14.2842 1.12034 14.2897 1.24068 14.2897 1.36007L14.2897 1.36011Z" fill="#1C1B1F"/>
</svg>
