<svg width="17" height="18" viewBox="0 0 17 18" fill="none" xmlns="http://www.w3.org/2000/svg">
<path d="M16.6711 7.36788H15.9998V7.33329H8.49984V10.6666H13.2094C12.5223 12.607 10.6761 14 8.49984 14C5.73859 14 3.49984 11.7612 3.49984 8.99996C3.49984 6.23871 5.73859 3.99996 8.49984 3.99996C9.77442 3.99996 10.934 4.48079 11.8169 5.26621L14.174 2.90913C12.6857 1.52204 10.6948 0.666626 8.49984 0.666626C3.89775 0.666626 0.166504 4.39788 0.166504 8.99996C0.166504 13.602 3.89775 17.3333 8.49984 17.3333C13.1019 17.3333 16.8332 13.602 16.8332 8.99996C16.8332 8.44121 16.7757 7.89579 16.6711 7.36788Z" fill="#FFC107"/>
<path d="M1.12744 5.12121L3.86536 7.12913C4.60619 5.29496 6.40036 3.99996 8.49994 3.99996C9.77453 3.99996 10.9341 4.48079 11.817 5.26621L14.1741 2.90913C12.6858 1.52204 10.6949 0.666626 8.49994 0.666626C5.29911 0.666626 2.52327 2.47371 1.12744 5.12121Z" fill="#FF3D00"/>
<path d="M8.4998 17.3334C10.6523 17.3334 12.6081 16.5096 14.0869 15.17L11.5077 12.9875C10.6429 13.6452 9.58625 14.0009 8.4998 14C6.3323 14 4.49189 12.618 3.79855 10.6892L1.08105 12.783C2.46022 15.4817 5.26105 17.3334 8.4998 17.3334Z" fill="#4CAF50"/>
<path d="M16.6712 7.36796H16V7.33337H8.5V10.6667H13.2096C12.8809 11.5902 12.2889 12.3972 11.5067 12.988L11.5079 12.9871L14.0871 15.1696C13.9046 15.3355 16.8333 13.1667 16.8333 9.00004C16.8333 8.44129 16.7758 7.89587 16.6712 7.36796Z" fill="#1976D2"/>
</svg>
